<?xml version="1.0" encoding="utf-8"?>
<!-- Generator: Adobe Illustrator 18.1.1, SVG Export Plug-In . SVG Version: 6.00 Build 0)  -->
<svg version="1.1" id="logo" xmlns="http://www.w3.org/2000/svg" xmlns:xlink="http://www.w3.org/1999/xlink" x="0px" y="0px"
	 viewBox="69.4 151.7 1051.7 538.6" enable-background="new 69.4 151.7 1051.7 538.6" xml:space="preserve">
<g>
	<path fill="#FFFFFF" d="M932.1,354.9c4.2,3,9.7,5.7,16.8,8.3c9.5,3.4,22.2,6.8,40.1,10.7c4,0.9,7.8,1.3,11.3,1.3
		c19.8,0,30.2-13,31.7-25.8c2.4-20.9-17.2-41.7-45.6-48.3c-8.7-2-16.9-3.1-24.1-3.1c-29.4,0-41.6,16.7-43.1,31
		C918.7,333.7,918.9,345.6,932.1,354.9z"/>
	<path fill="#FFFFFF" d="M1081.3,460.9c-1.3-1.3-2.4-2.6-3.6-3.8c-5.8-6.2-57.8-60.9-88.9-77.7c-8.2-4.4-17.5-6.7-27.8-6.7
		c-30.1,0-60.5,19.5-72.2,27.8c-3,2.2-6.3,4.6-9.7,7.2c-7.7,5.8-16.5,12.4-24.7,17.3c-6.7,4-10.8,5.5-13.1,6.1
		c-10.9-26.9-11-88.1-4.8-129.8c1.5-9.7,2.9-17.4,4.2-24.3c2.2-12,3.9-20.7,3.1-29.1c-1-11.4-6.3-20.7-16.2-28.4
		c-10.1-7.9-23.7-17-38.9-17c-9.1,0-17.3,3.2-23.8,9.4c-5.7,5.4-9.9,13-12.4,22.5c-5.8,22-12,61.3-15.1,81.3
		c-7.6-2.8-13.8-3.5-18.2-3.5c-1.9,0-3.6,0.1-5,0.3c-24.4,0.3-58.4,17-81.9,62.8c-5.3-11.5-13-21.8-22.7-29.6
		c-23.3-19-37.4-22.8-52.5-22.8c-28.3,0-57.2,27.4-65.4,35.7c-20.3,20.8-33.9,45.1-38.1,67.6c-5.8-8.8-12.8-16.6-20.9-23.4
		c-17.5-14.7-40.3-24.8-67.8-30.2c-34.1-6.7-92.3-13-134.8-17.6c-17.7-1.9-34.6-3.8-42.5-4.9c1.2-1.6,3.3-3.8,6.9-6.3
		c24.8-17.3,65.3-42.5,130.8-60l8.4-2.2c17.8-4.8,32.8-8.8,42.4-10.7c1.2,10.6,5.6,17.6,9.4,21.7c6.5,7.1,15.6,11,25.6,11
		c15.6,0,31.7-9.5,40.9-24.2c9-14.3,11.6-30.5,7.5-46.8c-4.1-16.4-15-32.8-32.5-48.8c-28.1-25.7-42.3-30.9-57.2-31.1
		c-0.3,0-0.6,0-0.9,0c-0.7,0-1.5-0.1-2.3-0.1h0c-15.5,0-58.4,10.9-107.3,31c-42.6,17.6-102.5,47.6-145.7,90.9
		C60.7,327.6,67,369.7,75.5,390.1c6.1,14.7,16.9,27.3,31.1,36.2c13,8.2,27.9,12.7,42.1,12.7c0.8,0,1.7,0,2.5,0
		c18.5-0.7,56.9-2.1,97.2-2.1c41.1,0,73.9,1.5,97.6,4.4c-2.9,0.5-6.1,1-9.4,1.6c-32.9,5.9-144.6,35.6-179.3,54
		c-19.8,10.4-35,24.3-43.9,40.2c-10.8,19-11.9,39.8-3.2,58.5c4.8,10.2,12.1,23.1,26.5,31.5c11.8,6.9,26.4,10,47.4,10
		c11.1,0,24.6-0.9,41.3-2.7c53.2-5.8,112.4-31.7,175.9-77.1c22.8-16.3,39.3-31.1,50.3-45.4c5-6.4,8.6-12.5,11.3-18.2
		c5.6,9.6,12.2,15.8,18,20.2c-1.1,1-2.1,2.1-3,3.1c-9.2,10.7-7.9,20.6-6.4,25.6c2.6,8.4,10.8,17.3,25.9,17.3c1.6,0,3.3-0.1,5.1-0.3
		l0.2,0c6.4-0.7,23.3-2.7,44.4-12.7c25.9-12.4,48.4-32.3,66.8-59.3c3.4-5,6.5-10,9.3-15c3.7,7,8.5,13.9,14.6,21
		c17.2,20.2,34.7,24.4,46.3,24.4c15.1,0,37.5-6.9,58.5-39.6c1.6-2.5,3.2-5,4.8-7.4c2.6-4,5.5-8.6,8.3-12.9
		c4.8,7.7,10.9,16.5,17.8,25c19.1,23.6,36.9,35.1,54.1,35.1c20.6,0,34.3-7.2,70.7-31.8c5.7-3.9,11-7.8,16.2-11.6
		c14.4-10.5,26.8-19.7,36.9-19.7c2.6,0,10.6,0,25.3,14c11.7,11.1,22.9,22.3,32.8,32.2c37.9,37.7,54,53,71.8,53
		c23.7,0,33.2-10.6,37.1-19.5C1128.6,510.8,1104.5,485.4,1081.3,460.9z"/>
</g>
<g>
	<g>
		<path fill="#272525" d="M984.6,329.2c32.4,7.6,39.9,36.8,12.1,30.8c-27.8-6-53.9-13.2-52.9-21.5
			C944.6,330.1,956.5,322.6,984.6,329.2z"/>
	</g>
	<g>
		<path fill="#272525" d="M1065.2,479c-24.2-25.7-62.5-62.2-83.5-73.6c-20.9-11.4-53.8,3-77.2,19.7c-23.3,16.8-65.8,54.7-79.6,22.1
			c-13.8-32.6-12.9-99.9-6.6-142.1c6.3-42.2,12.9-50.8-0.9-61.6c-13.8-10.8-34.1-23-41,3.3c-6.9,26.3-14.9,80.8-16.4,91.2
			c-1.5,10.5-4.8,16.7-18.8,8.7c-14.1-8.1-19.8-5.7-19.8-5.7c-17.6-0.6-47.8,13.2-67.6,52.3c-19.7,39.2-22.7,62.8,3.3,93.3
			s52,15.6,70.3-12.9c19.3-30,32-52.6,40.1-36.5c8.1,16.2,39.4,66.4,63.1,66.4c14.1,0,23.6-4.4,58.6-28.1
			c37.1-25.1,62.2-55.9,105.3-14.9c43.1,41,76.5,79.3,89.7,79.3C1125.3,540.1,1086.1,501.3,1065.2,479z M732.7,395.6
			c-7.3,15.6-10.1,20-22.9,48.1c-12.9,28.1-22.1,17.1-23.6,5.1c-1.5-12,1.9-29.3,8.1-41.9c5.3-10.7,13.7-19.4,25.7-26.6
			C732,373.2,738.7,382.8,732.7,395.6z"/>
	</g>
	<g>
		<path fill="#272525" d="M599.2,369.6c-20.6-16.7-29.9-17.9-38.9-17.9c-26.7,0-79,47.6-83.2,91.2c-4.2,43.7,14.4,57.4,22.7,63.1
			c8.4,5.7,23.3,13.2,7.2,24.2c-16.2,11.1-14.4,16.5-3.9,15.3c10.5-1.2,57.4-6.3,96-62.8C637.7,426.1,619.8,386.3,599.2,369.6z
			 M567.2,449.4c-6.4,10.2-10.3,22.9-17.4,19.9c-7.2-3-7.4-22.3-1.6-31.5c0,0,9.1-18.9,18.9-16.1
			C578.2,424.9,573.5,439.3,567.2,449.4z"/>
	</g>
	<g>
		<path fill="#272525" d="M448.6,464.4c-10.2-26.5-32.7-53.2-84.7-63.4c-52-10.2-165.1-19.9-181.1-23.1
			c-15.9-3.2-24.7-25.5,2.4-44.5c27.9-19.5,70.8-45.3,137.6-63.2c66.8-17.9,77.6-21.9,77.6,2.2c0,24.1,25.7,19.9,36.5,2.8
			c10.8-17.1,9.2-40.3-21.3-68.2c-30.5-27.9-38.5-25.1-44.9-25.5C351.1,180.2,208.5,220,132,296.9c-76.6,76.9-18.5,129.2,21.5,127.7
			c40.1-1.5,140.3-5.1,200.4,2.7c0,0,35,5.1,37.4,24.2c1.9,15.4-14.5,13.7-47.8,19.6c-33.3,6-141.4,35.1-173.1,51.8
			c-31.7,16.8-49.8,44.5-37.7,70.6c12.2,26.1,27.1,33.7,93.3,26.5c66.2-7.2,129.4-47.3,165.7-73.2
			C428.1,521,458.8,490.9,448.6,464.4z M358.1,514.6c-30.5,19.1-79.7,37.4-121.4,43.1c-30.8,4.2-29-13.2-11.1-21.8
			c17.9-8.7,123.5-47.2,141.2-47.8C384.4,487.4,388.6,495.5,358.1,514.6z"/>
	</g>
</g>
<path fill="#FFFFFF" d="M956.9,314.7c5.3,0,11.7,0.8,19.2,2.5c29.5,6.9,38.3,31.6,18.8,31.6c-2,0-4.2-0.3-6.8-0.8
	c-27.8-6-53.8-13.2-52.9-21.5C935.9,320.4,942.4,314.7,956.9,314.7 M956.9,311.1L956.9,311.1c-17.5,0-24.5,7.7-25.3,15
	c-1,9.6,14.1,16.5,55.8,25.4c2.7,0.6,5.2,0.9,7.5,0.9c8,0,13.2-3.7,13.9-9.9c1.1-10-10.7-23.8-31.9-28.8
	C969.5,312,962.8,311.1,956.9,311.1L956.9,311.1z"/>
<path fill="#FFFFFF" d="M783.4,219.2c8.3,0,18,6.5,25.6,12.5c13.8,10.8,7.2,19.4,0.9,61.6c-6.3,42.2-7.2,109.5,6.6,142.1
	c3.9,9.2,10.1,12.8,17.5,12.8c18.8,0,45.3-22.9,62.1-34.9c17.5-12.6,40.4-23.8,59.6-23.8c6.4,0,12.3,1.2,17.5,4.1
	c20.9,11.4,59.2,47.9,83.5,73.6c21,22.3,60.1,61,19.1,61c-13.2,0-46.7-38.3-89.7-79.3c-15.2-14.4-28.1-20-40.2-20
	c-22.1,0-41.1,18.7-65.1,34.9c-35.1,23.7-44.6,28.1-58.6,28.1c-23.7,0-55-50.2-63.1-66.4c-1.9-3.7-4-5.4-6.3-5.4
	c-7.9,0-18.9,18.7-33.8,41.9c-11.2,17.4-25.2,29.7-40.4,29.7c-9.7,0-19.8-5-29.9-16.9c-26-30.5-23-54.1-3.3-93.3
	c19.3-38.4,46.4-52.4,64.1-52.4c0.4,0,0.7,0,1.1,0c0,0,1.1-0.3,3.2-0.3c3.6,0,10.1,0.9,18.9,6c4.5,2.6,7.8,3.7,10.4,3.7
	c5.5,0,7.4-5.2,8.4-12.4c1.5-10.5,9.6-64.9,16.5-91.2C771.1,223.3,776.8,219.2,783.4,219.2 M686.2,449.4c4,0,9.2-4.6,15.2-17.7
	c12.9-28.1,15.6-32.6,22.9-48.1c4.6-9.7,1.7-17.7-5.3-17.7c-2.2,0-4.7,0.8-7.5,2.4c-12,7.2-20.5,15.9-25.7,26.6
	c-6.2,12.6-9.6,29.9-8.1,41.9C678.5,443.3,681.6,449.4,686.2,449.4 M783.4,215.6v3.6V215.6c-6.4,0-14.8,3.2-18.8,18.4
	c-7.5,28.7-16.2,89.1-16.5,91.6c-1.3,9.3-3.6,9.3-4.9,9.3c-1.4,0-4-0.6-8.6-3.2c-9.3-5.4-16.4-6.5-20.7-6.5c-1.7,0-2.9,0.2-3.6,0.3
	c-0.2,0-0.5,0-0.7,0c-18.4,0-47.1,14.2-67.3,54.3c-19.5,38.7-24.3,64.4,3.8,97.3c10.2,12,21.2,18.1,32.6,18.1
	c15.2,0,30.2-10.8,43.4-31.4c1.6-2.5,3.2-5,4.7-7.4c6.2-9.8,11.6-18.3,16.3-24.3c6-7.7,8.8-8.5,9.7-8.5c1.3,0,2.6,2.4,3.1,3.4
	c7.2,14.4,39.6,68.4,66.3,68.4c15.1,0,25.4-4.8,60.6-28.7c5.4-3.7,10.6-7.5,15.6-11.2c16.9-12.4,31.5-23.2,47.5-23.2
	c11.9,0,24.3,6.2,37.7,19c11.8,11.3,23.2,22.5,33.1,32.5c31.5,31.4,48.5,47.8,59.1,47.8c11.4,0,18.1-2.8,20.6-8.7
	c5.3-12.3-12-32-33.5-54.6c-1.2-1.3-2.5-2.6-3.6-3.8c-20.4-21.6-61.1-61.7-84.4-74.3c-5.5-3-12-4.5-19.2-4.5
	c-24.9,0-51.5,17.1-61.7,24.5c-2.9,2.1-6,4.4-9.4,7c-15.3,11.5-36.2,27.3-50.6,27.3c-6.6,0-11.1-3.4-14.2-10.6
	c-12.6-29.8-13.1-94.7-6.3-140.1c1.5-10,3-18.3,4.3-24.9c4-21.6,5.7-30.5-6.5-40.1C804,223.2,793.2,215.6,783.4,215.6L783.4,215.6z
	 M686.2,445.9c-1.8,0-4.2-3.8-4.9-9.4c-1.4-11.1,1.8-27.9,7.7-39.8c4.9-10,12.9-18.3,24.3-25.1c2.7-1.6,4.6-1.9,5.7-1.9
	c1.4,0,2.4,0.5,3,1.5c1.1,1.8,1.5,5.7-1,11.1c-2.7,5.9-4.9,10.2-7.1,14.7c-3.7,7.5-7.8,15.9-15.9,33.5
	C691.2,445.4,686.7,445.9,686.2,445.9L686.2,445.9z"/>
<path fill="#FFFFFF" d="M551.8,339.7c9,0,18.2,1.2,38.9,17.9c20.6,16.8,38.6,56.5,0,113.1c-38.6,56.5-85.5,61.6-96,62.8
	c-1,0.1-1.8,0.2-2.6,0.2c-8,0-8.1-5.4,6.5-15.4c16.2-11.1,1.2-18.5-7.2-24.2c-8.4-5.7-26.9-19.4-22.7-63.1
	C472.8,387.2,525.1,339.7,551.8,339.7 M543.3,457.9c5.9,0,9.6-11.2,15.4-20.4c6.4-10.2,11.1-24.5-0.1-27.7c-0.7-0.2-1.3-0.3-2-0.3
	c-9,0-16.9,16.4-16.9,16.4c-5.8,9.2-5.6,28.5,1.6,31.5C542,457.7,542.6,457.9,543.3,457.9 M551.8,336.1c-14.2,0-34.3,11.6-52.6,30.3
	c-19.7,20.2-32.2,43.6-34.2,64.2c-4,42,11.9,58,24.3,66.4c0.8,0.5,1.7,1.1,2.6,1.7c4.3,2.8,10.2,6.6,10.2,9.9c0,1.8-2,4.2-5.6,6.7
	c-10.5,7.2-14.7,12.7-13.2,17.3c0.5,1.8,2.4,4.7,8.7,4.7c0.9,0,2-0.1,3-0.2l0.2,0c48.8-5.6,80.5-38.1,98.4-64.3
	c38-55.7,23.4-98.3-0.7-117.9C571.6,337.5,561.7,336.1,551.8,336.1L551.8,336.1z M543.3,454.3c-0.2,0-0.4-0.1-0.7-0.2
	c-0.9-0.4-1.8-1.8-2.4-3.8c-2.1-6.5-0.9-17.1,2.5-22.5l0.1-0.2l0.1-0.2c2.3-4.7,8.6-14.4,13.7-14.4c0.3,0,0.7,0,1,0.1
	c2.5,0.7,3.3,2.1,3.7,3c1.5,3.9-0.7,11.5-5.6,19.4c-1.7,2.6-3.1,5.4-4.5,8C548.7,448.1,545.4,454.3,543.3,454.3L543.3,454.3z"/>
<g>
	<path fill="#CF4C2A" d="M976.1,317.2c32.4,7.6,39.9,36.8,12.1,30.8c-27.8-6-53.8-13.2-52.9-21.5C936.1,318.1,948,310.7,976.1,317.2
		z"/>
	<path fill="#CF4C2A" d="M1056.7,467.1c-24.3-25.7-62.5-62.2-83.5-73.6c-20.9-11.4-53.8,3-77.2,19.7c-23.3,16.7-65.8,54.7-79.6,22.1
		c-13.8-32.6-12.9-99.9-6.6-142.1c6.3-42.2,12.9-50.9-0.9-61.6c-13.7-10.8-34.1-23-41,3.3c-6.9,26.3-14.9,80.8-16.5,91.2
		c-1.5,10.5-4.8,16.8-18.8,8.7c-14.1-8.1-22.1-5.7-22.1-5.7c-17.6-0.6-45.5,13.2-65.2,52.3c-19.7,39.2-22.7,62.8,3.3,93.3
		c26,30.5,52,15.6,70.3-12.9c19.3-30,32-52.6,40.1-36.5c8.1,16.2,39.4,66.4,63.1,66.4c14.1,0,23.6-4.4,58.6-28.1
		c37.1-25.1,62.2-55.9,105.3-15c43.1,41,76.5,79.3,89.7,79.3C1116.8,528.1,1077.7,489.4,1056.7,467.1z M724.3,383.6
		c-7.3,15.6-10.1,20-22.9,48.1c-12.9,28.1-22.1,17.1-23.6,5.1c-1.5-12,1.9-29.3,8.1-41.9c5.2-10.7,13.8-19.4,25.7-26.6
		C723.5,361.2,730.3,370.9,724.3,383.6z"/>
	<path fill="#CF4C2A" d="M590.7,357.6c-20.6-16.7-29.9-17.9-38.9-17.9c-26.7,0-79,47.6-83.1,91.2c-4.2,43.7,14.4,57.4,22.7,63.1
		c8.4,5.7,23.3,13.2,7.2,24.2c-16.2,11.1-14.4,16.5-3.9,15.3c10.5-1.2,57.4-6.3,96-62.8C629.3,414.1,611.3,374.4,590.7,357.6z
		 M558.7,437.5c-6.4,10.2-10.3,22.9-17.4,19.9c-7.2-3-7.4-22.3-1.6-31.5c0,0,9.2-18.9,19-16.2C569.8,412.9,565.1,427.3,558.7,437.5z
		"/>
	<path fill="#CF4C2A" d="M440.1,452.4c-10.2-26.5-32.7-53.2-84.7-63.4c-52-10.2-165.1-19.9-181-23.1c-16-3.2-24.7-25.5,2.4-44.5
		c27.9-19.5,70.8-45.3,137.6-63.2c66.8-17.9,77.6-21.9,77.6,2.2c0,24.1,25.7,19.9,36.5,2.8c10.8-17.1,9.2-40.3-21.3-68.2
		c-30.5-27.9-38.5-25.1-44.9-25.5c-19.5-1.2-162.1,38.6-238.7,115.4C46.9,361.8,105,414.1,145,412.6c40.1-1.5,140.3-5.1,200.4,2.7
		c0,0,35,5.1,37.4,24.2c1.9,15.4-14.5,13.7-47.8,19.6c-33.3,6-141.4,35.1-173.1,51.8c-31.7,16.7-49.9,44.5-37.7,70.6
		c12.2,26.1,27.1,33.7,93.3,26.5C283.8,601,347,560.9,383.3,535C419.6,509,450.3,478.9,440.1,452.4z M349.6,502.7
		c-30.5,19.1-79.7,37.4-121.4,43.1c-30.8,4.2-29-13.2-11.1-21.8c17.9-8.7,123.5-47.3,141.2-47.8
		C375.9,475.5,380.1,483.5,349.6,502.7z"/>
</g>
<path fill="#FFFFFF" d="M361.2,169.5c0.3,0,0.7,0,1,0c6.4,0.4,14.3-2.4,44.9,25.5c30.5,27.9,32.1,51,21.3,68.2
	c-5.5,8.7-14.8,14.1-22.7,14.1c-7.6,0-13.8-5-13.8-16.9c0-11.8-2.6-16.9-13-16.9c-10.9,0-30.4,5.5-64.5,14.7
	c-66.8,17.9-109.7,43.7-137.6,63.2c-27.1,19-18.3,41.3-2.4,44.5c16,3.2,129,13,181,23.1c52,10.2,74.6,36.9,84.7,63.4
	c10.2,26.5-20.5,56.6-56.8,82.6c-36.3,25.9-99.5,66-165.7,73.2c-15.6,1.7-28.4,2.6-39,2.6c-34.1,0-45.1-9.1-54.4-29.1
	c-12.2-26.1,6-53.8,37.7-70.6c31.7-16.8,139.8-45.9,173.1-51.8c33.3-6,49.7-4.3,47.8-19.6c-2.4-19.1-37.4-24.2-37.4-24.2
	c-28.7-3.7-66.4-4.8-102.4-4.8c-39.6,0-77,1.4-98,2.1c-0.6,0-1.1,0-1.7,0c-40,0-95.3-51.9-19.9-127.7
	C198.9,209.2,338.4,169.5,361.2,169.5 M219.5,546.4c2.5,0,5.4-0.2,8.6-0.6c41.8-5.7,90.9-23.9,121.4-43.1
	c29.5-18.5,26.6-26.6,10.4-26.6c-0.6,0-1.2,0-1.8,0c-17.6,0.6-123.2,39.2-141.2,47.8C201.1,531.7,197.9,546.4,219.5,546.4
	 M361.2,165.9L361.2,165.9c-11.5,0-51.4,9.4-100.5,29.6c-41.1,16.9-98.8,45.7-139.8,86.9c-18,18.1-29.9,36-35.2,53.3
	c-4.8,15.3-4.4,29.7,1,42.8c10.3,24.8,36.3,37.8,56.6,37.8c0.6,0,1.2,0,1.8,0c18.6-0.7,57.3-2.1,97.8-2.1c43,0,77.3,1.6,102,4.8
	c8.9,1.3,32.6,7.7,34.3,21.1c1,7.9-3.7,9.4-26.1,12.7c-5.5,0.8-11.7,1.7-18.7,3c-31.3,5.6-141.4,34.9-174.1,52.2
	c-16.7,8.8-29.4,20.3-36.7,33.2c-8,14-8.8,28.5-2.5,42.1c9.6,20.7,21.2,31.2,57.6,31.2c10.4,0,23.3-0.9,39.4-2.6
	c50.1-5.4,106.4-30.3,167.4-73.8c48.3-34.5,67.3-62.8,58.1-86.7c-13.4-34.8-42.8-56.9-87.4-65.7c-33.3-6.5-91.1-12.8-133.3-17.4
	c-23.5-2.6-42.1-4.6-47.8-5.7c-6-1.2-10.6-5.7-11.8-11.5c-1.8-8.7,3.9-18.3,15.6-26.5c25.9-18.1,68.2-44.3,136.5-62.7l8.3-2.2
	c28.5-7.7,45.7-12.3,55.3-12.3c5.1,0,6.7,1.3,7.5,2.5c1.3,1.9,1.9,5.3,1.9,10.8c0,15.1,9,20.5,17.4,20.5c9.5,0,19.8-6.3,25.7-15.8
	c9.6-15.3,13.5-40.3-22-72.7c-28.6-26.2-38.3-26.3-45.3-26.4c-0.6,0-1.2,0-1.7,0C362,165.9,361.6,165.9,361.2,165.9L361.2,165.9
	L361.2,165.9z M219.5,542.8c-7.9,0-11.3-2.2-11.7-4c-0.7-2.9,3.2-8,10.8-11.7c19.8-9.6,123.6-47,139.7-47.5c0.6,0,1.1,0,1.6,0
	c6.3,0,8.2,1.3,8.4,1.7c0,0,0.6,4.9-20.8,18.3c-31.4,19.7-80.8,37.2-120,42.6C224.7,542.6,222,542.8,219.5,542.8L219.5,542.8z"/>
<path fill="#FFFFFF" d="M620,550.5h20.7l-6.6,24.8h9.7l32.7-24.8h28.1l-45.4,33l31.6,34.5h-29.3l-22.9-25.9h-9.1l-6.9,25.9h-20.7
	L620,550.5z"/>
<path fill="#FFFFFF" d="M733.9,550.5h26.9l19,67.5h-23l-3.2-11.9h-41.9l-9.3,11.9h-23.1L733.9,550.5z M723.3,591.6h26.5l-6.6-25.4
	L723.3,591.6z"/>
<path fill="#FFFFFF" d="M803.2,550.5h62.4c15.9,0,18.1,7.9,14.9,20l-1.1,4.3c-2.4,9-5.9,14.4-16,16.6l-0.1,0.2
	c5.8,1.1,10.3,3.8,7.3,14.9l-3.1,11.5h-20.7l2.2-8.1c1.9-7.1,0.5-9.4-6-9.4h-32.5l-4.7,17.5h-20.7L803.2,550.5z M815,583.7h34.2
	c5.6,0,8.2-2.2,9.5-7.1l0.6-2.2c1.6-6-1.1-7.1-7.6-7.1h-32.3L815,583.7z"/>
<path fill="#FFFFFF" d="M891.8,550.5h78.9l-4.5,16.8h-29.1L923.5,618h-20.7l13.6-50.7h-29.1L891.8,550.5z"/>
<path fill="#FFFFFF" d="M374,637.8h20.3l14.3,50.8h-17.3l-2.4-9h-31.6l-7,9h-17.4L374,637.8z M366,668.7h19.9l-5-19.1L366,668.7z"/>
<path fill="#FFFFFF" d="M420.7,637.8h15.6l-7.9,29.4c-1.7,6.5-0.1,9,6.3,9h15.4c6.4,0,9.4-2.5,11.1-9l7.9-29.4h15.6l-8.8,32.7
	c-3.4,12.6-11.5,18.7-25.9,18.7h-22.3c-14.3,0-19.2-6-15.8-18.7L420.7,637.8z"/>
<path fill="#FFFFFF" d="M481.5,672h15.6c-1.4,5.4,0.7,5.8,5.2,5.8h19.1c3.3,0,6.8-0.4,7.8-4.3c1.2-4.4-0.6-4.7-20.6-4.7
	c-23.4,0-25.4-2.8-22-15.3c2.5-9.2,5.2-16.3,24.9-16.3h21.8c18,0,18,6.1,15.6,15l-0.4,1.6h-15.6c1-3.7,1-5.3-6.2-5.3h-17.3
	c-3.5,0-6.2,1.2-6.9,3.9c-1.2,4.4,0.7,4.6,17.4,4.5c24.2-0.1,29.5,1.4,25.5,16.2c-3.7,13.7-8.9,15.9-29.6,15.9h-18.9
	c-14.2,0-19.2-2.7-16.2-13.7L481.5,672z"/>
<path fill="#FFFFFF" d="M557.8,637.8h59.4l-3.4,12.6h-21.9l-10.2,38.2H566l10.2-38.2h-21.9L557.8,637.8z"/>
<path fill="#FFFFFF" d="M621.7,637.8h47c12,0,13.6,6,11.2,15.1l-0.9,3.2c-1.8,6.8-4.4,10.8-12.1,12.5l0,0.1
	c4.4,0.8,7.7,2.9,5.5,11.2l-2.3,8.6h-15.6l1.6-6.1c1.4-5.3,0.4-7.1-4.5-7.1h-24.5l-3.5,13.2h-15.6L621.7,637.8z M630.6,662.8h25.8
	c4.2,0,6.2-1.7,7.2-5.3l0.5-1.7c1.2-4.5-0.8-5.3-5.7-5.3h-24.4L630.6,662.8z"/>
<path fill="#FFFFFF" d="M715.3,637.8h20.3l14.3,50.8h-17.3l-2.4-9h-31.6l-7,9h-17.4L715.3,637.8z M707.3,668.7h19.9l-5-19.1
	L707.3,668.7z"/>
<path fill="#FFFFFF" d="M767.4,637.8H783l-10.1,37.8h35l-3.5,13.1h-50.6L767.4,637.8z"/>
<path fill="#FFFFFF" d="M844.9,637.8h20.3l14.3,50.8h-17.3l-2.4-9h-31.6l-7,9h-17.4L844.9,637.8z M836.9,668.7h19.9l-5-19.1
	L836.9,668.7z"/>
<path fill="#FFFFFF" d="M883,672h15.6c-1.4,5.4,0.7,5.8,5.2,5.8h19.1c3.3,0,6.8-0.4,7.8-4.3c1.2-4.4-0.6-4.7-20.6-4.7
	c-23.4,0-25.4-2.8-22-15.3c2.5-9.2,5.2-16.3,24.9-16.3h21.8c18,0,18,6.1,15.6,15l-0.4,1.6h-15.6c1-3.7,1-5.3-6.2-5.3h-17.3
	c-3.5,0-6.2,1.2-6.9,3.9c-1.2,4.4,0.7,4.6,17.4,4.5c24.2-0.1,29.5,1.4,25.5,16.2c-3.7,13.7-8.9,15.9-29.6,15.9h-18.9
	c-14.2,0-19.2-2.7-16.2-13.7L883,672z"/>
<path fill="#FFFFFF" d="M962.6,637.8h15.6l-13.6,50.8H949L962.6,637.8z"/>
<path fill="#FFFFFF" d="M1007.3,637.8h20.3l14.3,50.8h-17.3l-2.4-9h-31.6l-7,9h-17.4L1007.3,637.8z M999.3,668.7h19.9l-5-19.1
	L999.3,668.7z"/>
</svg>
